<?xml version="1.0" encoding="UTF-8"?>
<svg xmlns="http://www.w3.org/2000/svg" viewBox="0 0 160 160">
  <defs>
    <style>
      .cls-1 {
        fill: #fff;
      }
    </style>
  </defs>
  <g id="Backgrounds">
    <rect width="160" height="160"/>
  </g>
  <g id="Logos">
    <g>
      <path class="cls-1" d="M127.99,62.12l-31.92-26.38c-.77-.66-1.73-.53-2.36.29-.63.78-.67,1.93-.07,2.75l15.83,22.19c.3.42.39.95.25,1.44l-16.7,59.18c-.37,1.1,0,2.25.87,2.82.27.2.6.29.87.29.6,0,1.17-.37,1.53-1.02l32.11-59.44c.38-.71.21-1.6-.41-2.11Z"/>
      <path class="cls-1" d="M80.75,40.46c-.25-.49-.65-.78-1.08-.78h-.03c-.43.04-.83.33-1.08.78l-11.23,21.89c-.23.48-.28,1.01-.2,1.53l11.79,57.67c.15.79.66,1.31,1.25,1.31.6-.04,1.11-.56,1.25-1.31l11.46-57.49c.07-.51-.06-1.1-.29-1.55l-11.85-22.06Z"/>
      <path class="cls-1" d="M50.28,62.41c-.14-.49-.05-1.03.25-1.44l15.83-22.19c.6-.82.56-1.97-.07-2.75-.63-.82-1.58-.94-2.36-.29l-31.92,26.38c-.62.52-.8,1.4-.41,2.11l32.11,59.44c.37.65.93,1.02,1.53,1.02.27,0,.6-.08.87-.29.87-.57,1.23-1.71.87-2.82l-16.7-59.18Z"/>
    </g>
  </g>
</svg>
